<svg width="640" height="420" viewBox="0 0 640 420" fill="none" xmlns="http://www.w3.org/2000/svg" role="img" aria-labelledby="title desc">
  <title id="title">判断地图</title>
  <desc id="desc">灵感、证据、执行、复盘四个节点围绕创作许可形成闭环。</desc>
  <rect width="640" height="420" fill="#F7F9FC"/>
  <path d="M78 308C132 190 226 112 342 96C441 82 522 126 568 210" stroke="#D9DEE8" stroke-width="2"/>
  <path d="M108 326C174 264 254 236 348 242C435 247 500 278 548 336" stroke="#D9DEE8" stroke-width="2" stroke-dasharray="9 9"/>
  <circle cx="320" cy="210" r="74" fill="white" stroke="#16181D" stroke-width="2"/>
  <text x="320" y="202" text-anchor="middle" font-family="-apple-system,BlinkMacSystemFont,Segoe UI,sans-serif" font-size="22" font-weight="800" fill="#16181D">创作许可</text>
  <text x="320" y="232" text-anchor="middle" font-family="-apple-system,BlinkMacSystemFont,Segoe UI,sans-serif" font-size="14" fill="#667085">先闸门，再输出</text>
  <g>
    <circle cx="118" cy="118" r="48" fill="#345995"/>
    <text x="118" y="114" text-anchor="middle" font-family="-apple-system,BlinkMacSystemFont,Segoe UI,sans-serif" font-size="18" font-weight="800" fill="white">灵感</text>
    <text x="118" y="138" text-anchor="middle" font-family="-apple-system,BlinkMacSystemFont,Segoe UI,sans-serif" font-size="12" fill="white">收藏主题</text>
  </g>
  <g>
    <circle cx="504" cy="118" r="48" fill="#0E7C66"/>
    <text x="504" y="114" text-anchor="middle" font-family="-apple-system,BlinkMacSystemFont,Segoe UI,sans-serif" font-size="18" font-weight="800" fill="white">证据</text>
    <text x="504" y="138" text-anchor="middle" font-family="-apple-system,BlinkMacSystemFont,Segoe UI,sans-serif" font-size="12" fill="white">可验证</text>
  </g>
  <g>
    <circle cx="118" cy="318" r="48" fill="#B27614"/>
    <text x="118" y="314" text-anchor="middle" font-family="-apple-system,BlinkMacSystemFont,Segoe UI,sans-serif" font-size="18" font-weight="800" fill="white">执行</text>
    <text x="118" y="338" text-anchor="middle" font-family="-apple-system,BlinkMacSystemFont,Segoe UI,sans-serif" font-size="12" fill="white">最小版本</text>
  </g>
  <g>
    <circle cx="504" cy="318" r="48" fill="#C8573C"/>
    <text x="504" y="314" text-anchor="middle" font-family="-apple-system,BlinkMacSystemFont,Segoe UI,sans-serif" font-size="18" font-weight="800" fill="white">复盘</text>
    <text x="504" y="338" text-anchor="middle" font-family="-apple-system,BlinkMacSystemFont,Segoe UI,sans-serif" font-size="12" fill="white">证伪条件</text>
  </g>
  <path d="M166 126C202 146 232 164 260 184" stroke="#345995" stroke-width="4" stroke-linecap="round"/>
  <path d="M458 132C424 154 396 172 374 188" stroke="#0E7C66" stroke-width="4" stroke-linecap="round"/>
  <path d="M166 306C202 286 233 268 262 248" stroke="#B27614" stroke-width="4" stroke-linecap="round"/>
  <path d="M458 306C424 286 396 268 374 248" stroke="#C8573C" stroke-width="4" stroke-linecap="round"/>
  <circle cx="320" cy="210" r="8" fill="#16181D"/>
</svg>
